<svg width="58" height="60" fill="none" xmlns="http://www.w3.org/2000/svg"><path d="M21.726 54.892c-4.044-1.138-7.6-3.231-10.704-6.156-.975.343-1.968.686-2.979 1.011-.469.145-.938.09-1.426-.09-.866-.325-1.39-.957-1.769-1.733-.523-1.029-1.191-1.967-1.714-2.996-.47-.957-1.156-1.787-1.553-2.78-.198-.487-.722-.812-.722-1.426-.47-.758-.018-1.426.253-2.094.072-.18.162-.415.325-.487.65-.289.975-.939 1.516-1.336.253-.18.523-.379.812-.596-.415-2.075-.776-4.151-.776-6.281 0-2.112.38-4.152.776-6.174-.704-.65-1.353-1.281-2.04-1.877-.703-.613-1.119-1.372-1.028-2.166.054-.433.18-.902.397-1.263.668-1.065 1.281-2.184 1.931-3.268.524-.866.975-1.768 1.553-2.617.306-.433.487-.939.794-1.39.595-.848 1.787-1.263 2.762-.974.866.252 1.678.631 2.563.794.09.018.162.144.252.234 3.123-2.906 6.68-4.982 10.758-6.19.163-.488.2-1.012.398-1.517.144-.38.108-.849.18-1.264.199-1.083.867-1.714 1.823-2.04C24.451.109 24.794 0 25.21 0c2.527.036 5.055.036 7.582 0 .722 0 1.335.289 1.913.614.523.27.812.848.957 1.39.252.992.397 2.003.595 3.05 4.062 1.155 7.618 3.231 10.722 6.155.975-.343 1.968-.685 2.979-1.01.469-.145.938-.09 1.426.09.866.325 1.39.957 1.769 1.733.523 1.028 1.19 1.967 1.714 2.996.47.957 1.156 1.787 1.553 2.78.198.487.722.812.722 1.426.47.758.018 1.426-.253 2.094-.072.18-.162.415-.325.487-.65.289-.975.939-1.516 1.336-.253.18-.524.379-.812.596.415 2.075.776 4.151.776 6.281 0 2.112-.325 4.152-.776 6.173.704.65 1.353 1.282 2.04 1.878.703.613 1.119 1.371 1.028 2.166-.054.433-.162.902-.397 1.263-.65 1.047-1.263 2.13-1.895 3.195-.794 1.318-1.444 2.744-2.365 3.99-.162.685-.812.74-1.281.992-.506.27-1.011.199-1.57.036-.831-.234-1.625-.65-2.492-.758-.09-.018-.162-.144-.252-.235-3.123 2.943-6.661 5.036-10.795 6.21-.198.975-.379 1.985-.595 2.978-.217.975-.867 1.589-1.787 1.877-.343.109-.704.217-1.102.217a265.363 265.363 0 0 0-7.58 0c-.723 0-1.336-.289-1.914-.614-.523-.27-.83-.848-.939-1.39a157.72 157.72 0 0 0-.613-3.104Zm1.173-15.903c.36-.198.776-.325.794-.758.036-.65.127-1.318-.018-1.931-.253-1.047-.704-2.058-.975-3.105-.18-.668-.577-1.3-.56-2.022-.577-1.426-.938-2.924-1.425-4.368-.397-1.191-.686-2.419-1.12-3.592-.234-.65-.288-1.372-.721-1.95a.926.926 0 0 1-.054-.09c-.488-.325-.993-.216-1.427-.216-.252.234-.469.433-.667.613-.018.578-.434 1.03-.361 1.589-.632 1.408-.903 2.924-1.426 4.368-.271.74-.434 1.498-.65 2.256-.199.758-.632 1.444-.632 2.257-.686 1.534-1.029 3.177-1.534 4.783-.127.397-.199.776.054 1.155.072.109.036.271.036.253.289.307.505.523.686.74h1.083c.253-.325.505-.632.74-.938-.054-1.03.162-1.715.632-2.816h5.307c.144.577.216 1.137.415 1.66.09.217.18.433.144.65-.054.668.163 1.191.92 1.444.181.018.452.018.759.018Zm4.224 0c.487-.036 1.047.108 1.444-.289.144-.18.27-.36.451-.613V32.49c1.318 0 2.617-.054 3.899.018.776.036 1.408-.199 2.022-.578.288-.18.541-.45.794-.704.668-.65.993-1.444 1.01-2.382v-4.423c0-.216-.053-.45-.108-.668-.198-.776-.613-1.353-1.173-1.859-.65-.595-1.408-.956-2.31-.956h-6.065c-.199.216-.398.433-.632.65v16.768c.235.199.451.416.668.632Zm12.996 0h3.755c.216-.216.433-.433.65-.632v-1.083c-.271-.505-.687-.812-1.228-.866V23.592c.397-.198.74-.379 1.137-.596.054-.469.09-.956.127-1.3-.29-.324-.488-.559-.65-.74h-3.683c-.306.271-.523.47-.794.723.054.433.127.92.18 1.335.434.217.777.398 1.084.56v12.852c-.18.036-.38 0-.452.09-.252.253-.685.325-.776.74v1.083l.65.65Z" fill="#0006ffb3"/></svg>