<svg width="54" height="60" fill="none" xmlns="http://www.w3.org/2000/svg"><path d="M.512.01c0 .233-.011.392 0 .55.402 4.399.804 8.797 1.195 13.206.55 6.237 1.09 12.475 1.64 18.702.625 7 1.26 13.988 1.863 20.987.042.507.222.73.698.856 6.772 1.861 13.523 3.732 20.295 5.583.455.127 1.006.148 1.46.02 6.794-1.86 13.577-3.753 20.37-5.624.519-.148.698-.38.74-.91.212-2.642.466-5.296.7-7.94.39-4.376.772-8.753 1.163-13.13.455-5.139.92-10.266 1.376-15.405.338-3.827.698-7.643 1.037-11.47.158-1.798.296-3.595.444-5.435H.512v.01Zm42.76 15.267-1.048 11.62-1.206 13.342c-.117 1.28-.286 2.559-.318 3.849-.021.687-.317.867-.889 1.025-4.084 1.1-8.158 2.231-12.232 3.352-.18.052-.35.116-.529.169-.064-.032-.127-.053-.201-.085-4.36-1.184-8.72-2.379-13.079-3.584-.18-.053-.412-.338-.434-.54-.306-3.298-.582-6.596-.878-9.958h6.656c.116 1.321.243 2.664.349 4.017.095 1.248.085 1.248 1.26 1.565 2.105.56 4.221 1.11 6.327 1.66l-.021-.053c2.307-.613 4.613-1.216 6.92-1.871.212-.064.455-.402.487-.635.137-1.015.212-2.04.296-3.055.138-1.639.275-3.278.423-4.99H27.03l.021-.043H12.151c-.2-2.188-.391-4.356-.592-6.587H27.06l-.022-.042h8.709c.201-2.273.402-4.493.603-6.756H27.03l.021-.042h-.17c-5.216.01-10.433.01-15.65.021-.074 0-.148-.031-.285-.074-.19-2.157-.392-4.313-.582-6.534H27.05l-.021-.042H43.62c-.117 1.48-.233 2.876-.35 4.271Z" fill="#0006ffb3"/></svg>