<svg width="60" height="60" fill="none" xmlns="http://www.w3.org/2000/svg"><path d="M58.878 27.357 32.647 1.126c-1.501-1.501-3.98-1.501-5.481 0L21.75 6.542l6.916 6.916c1.632-.522 3.459-.195 4.699 1.11 1.305 1.305 1.63 3.132 1.109 4.763l6.656 6.656c1.631-.522 3.458-.196 4.763 1.11 1.827 1.761 1.827 4.697 0 6.524-1.827 1.828-4.698 1.828-6.525 0-1.37-1.37-1.697-3.327-.979-5.024l-6.199-6.199v16.313c.457.196.848.522 1.24.849 1.827 1.761 1.827 4.698 0 6.525a4.689 4.689 0 0 1-6.526 0c-1.827-1.827-1.827-4.698 0-6.526a4.251 4.251 0 0 1 1.501-.978V22.07c-.522-.195-1.044-.587-1.5-.978-1.37-1.37-1.697-3.328-.98-5.024l-6.85-6.787L1.13 27.227c-1.501 1.5-1.501 3.98 0 5.481l26.166 26.166c1.5 1.501 3.98 1.501 5.481 0L58.813 32.84c1.566-1.567 1.566-3.98.065-5.482Z" fill="white"/></svg>