<svg width="56" height="60" fill="none" xmlns="http://www.w3.org/2000/svg"><path d="M.1 0h55.8v60H.1V0Zm49.922 31.762c-1.13-2.187-2.675-3.686-4.898-4.213a9.905 9.905 0 0 0-4.747-.04c-5.124 1.134-7.31 7.778-3.994 12.194 1.168 1.54 2.713 2.471 4.333 3.281 1.432.73 2.901 1.418 4.333 2.188.98.527 1.394 1.5 1.281 2.674-.113 1.175-.867 1.823-1.809 2.188-2.11.81-4.559.08-5.99-1.823-.302-.405-.603-.851-.904-1.297-1.432.892-2.826 1.742-4.22 2.634.866 1.823 2.072 3.281 3.73 4.253 2.825 1.661 5.802 1.905 8.854 1.094 1.997-.526 3.692-1.62 4.747-3.605 1.96-3.768.83-8.468-2.637-10.777-1.545-1.013-3.278-1.701-4.898-2.593-.792-.445-1.62-.85-2.299-1.418-1.205-1.053-.98-3.16.377-3.97 1.319-.81 3.165-.324 4.182 1.094.226.284.377.608.603.932 1.281-.932 2.6-1.864 3.956-2.796ZM14.794 50.155c.754 1.742 1.846 3.12 3.391 4.011 1.997 1.175 4.182 1.378 6.405 1.013 1.997-.324 3.655-1.297 4.747-3.241.905-1.62 1.169-3.403 1.169-5.307V27.59h-5.238v18.878c0 .568-.037 1.175-.113 1.743-.15.931-.603 1.62-1.47 1.904-1.62.526-2.938 0-3.88-1.5-.226-.404-.452-.81-.716-1.215-1.47.932-2.863 1.824-4.295 2.755Z" fill="#0006ffb3"/></svg>