<svg width="66" height="60" fill="none" xmlns="http://www.w3.org/2000/svg"><path fill-rule="evenodd" clip-rule="evenodd" d="m63.694 15.764-5.682 7.944-5.681-7.944h3.097C55.193 9.86 50.316 5.139 44.358 5.139c-5.03 0-9.294 3.375-10.642 7.972a23.157 23.157 0 0 0-5.056-1.014c.194-.736.444-1.472.75-2.18a16.212 16.212 0 0 1 3.473-5.153 15.992 15.992 0 0 1 5.154-3.472C40.036.43 42.162 0 44.356 0c2.196 0 4.321.43 6.322 1.278 1.93.82 3.667 1.986 5.153 3.472a16.212 16.212 0 0 1 3.473 5.153 15.738 15.738 0 0 1 1.264 5.86h3.126ZM55.748 60v-3.417H36.16c.14-.07.278-.125.417-.194a23.592 23.592 0 0 0 5.835-3.945c.236-.222.458-.43.667-.639.236-.236.486-.486.722-.75.278-.305.556-.625.806-.944h11.141v-3.417l9.307 6.653L55.748 60ZM48.524 35.32c0 2.958-.583 5.833-1.722 8.54a21.77 21.77 0 0 1-4.029 6.265l-.667.708c-.208.209-.417.403-.625.611a22.117 22.117 0 0 1-5.473 3.709c-.278.139-.57.264-.862.389-.014 0-.014.013-.028.013a13.468 13.468 0 0 1-5.278 1.056H.944v-6.458H27.77c8.113 0 14.767-6.486 14.878-14.598v-.208c0-8.861-7.196-16.056-16.06-16.056-8.862-.027-16.058 7.153-16.058 16.028h3.723l-6.654 9.306-6.655-9.306h3.723c0-2.958.584-5.833 1.723-8.541a21.96 21.96 0 0 1 4.696-6.973 21.74 21.74 0 0 1 6.973-4.694 21.936 21.936 0 0 1 8.544-1.722c.597 0 1.18.027 1.764.07a21.517 21.517 0 0 1 6.765 1.666 21.965 21.965 0 0 1 6.974 4.694 21.732 21.732 0 0 1 4.696 6.972 21.804 21.804 0 0 1 1.722 8.528Z" fill="#0006ffb3"/></svg>