<svg width="60" height="60" fill="none" xmlns="http://www.w3.org/2000/svg"><path d="M59.918 4.775c-.436-2.292-2.21-4.147-4.475-4.639-.109-.027-.218-.027-.354-.054-.027 0-.055-.055-.082-.082H4.966c-.027.027-.055.082-.11.082C2.593.464.683 2.265.165 4.557a2.659 2.659 0 0 1-.137.3v50.177c.028.055.082.082.082.136.546 2.51 2.074 4.066 4.557 4.694a.49.49 0 0 1 .19.136H55.09c.054-.027.082-.082.136-.11 2.483-.572 4.011-2.073 4.639-4.556.027-.082 0-.19.027-.273 0-.027.055-.054.082-.081V4.939c0-.055-.055-.082-.055-.164ZM34.816 33.26h-7.449c0 .027-.027.027-.027.054V54.68h-5.976V33.288h-7.503v-4.775h20.928v4.748h.027Zm20.136 14.27c-.054.927-.19 1.828-.573 2.7-.109.274-.19.52-.327.792-.491 1.037-1.31 1.774-2.265 2.374-1.091.682-2.292 1.064-3.547 1.31-1.391.273-2.783.354-4.202.3-.682-.027-1.364-.027-2.046-.11-1.61-.19-3.192-.545-4.666-1.254-.082-.028-.19-.164-.19-.246V47.967c.436.3.872.6 1.309.846 1.064.628 2.237 1.064 3.438 1.337 1.037.246 2.073.273 3.11.218a5.576 5.576 0 0 0 2.292-.573c.628-.327 1.146-.764 1.283-1.5.136-.655.081-1.31-.3-1.883-.546-.819-1.31-1.337-2.156-1.773-.955-.464-1.91-.874-2.892-1.31-1.446-.655-2.865-1.364-4.038-2.456-.956-.9-1.665-1.964-1.992-3.247a8.171 8.171 0 0 1-.219-2.292c.028-1.882.71-3.492 2.047-4.83 1.091-1.09 2.428-1.745 3.902-2.128 1.01-.245 2.019-.436 3.055-.463.737 0 1.474-.082 2.183-.055 1.119.027 2.21.082 3.302.355.71.19 1.446.382 2.155.546.137.027.191.109.191.272v5.103c0 .054 0 .109-.027.19-.218-.136-.41-.245-.6-.354-.873-.491-1.801-.819-2.756-1.064-1.064-.246-2.128-.41-3.22-.382-.736.027-1.5.136-2.183.382-.845.3-1.527.791-1.828 1.691-.245.71-.054 1.31.382 1.883.546.71 1.283 1.2 2.074 1.583 1.064.518 2.156.955 3.192 1.446 1.201.573 2.401 1.146 3.411 1.992.873.736 1.665 1.555 2.101 2.646.246.655.464 1.337.464 2.074.109.437.164.873.136 1.31Z" fill="#0006ffb3"/></svg>